<svg id="Layer_1" data-name="Layer 1" xmlns="http://www.w3.org/2000/svg" viewBox="0 0 2039.88 624.05"><path d="M699.66,274.27a2,2,0,0,0-.43.66A2,2,0,0,1,699.66,274.27Z" transform="translate(-206.67 -186.4)" fill="none"/><path d="M1403.34,480.32c0-23.67.46-47.34-.13-71-.54-21.79-12.5-37.05-31.43-41.79a60.93,60.93,0,0,0-30.67,0c-14.62,3.86-24.89,12.82-28.73,27.66a93.57,93.57,0,0,0-3,22.65c-.28,41.5-.17,83-.09,124.5a111.24,111.24,0,0,0,1.06,14.92c2.52,18.53,13.59,31.68,31,35.5a82.51,82.51,0,0,0,22.8,1.35c19-1.25,32.82-13.07,37.08-31.58a99,99,0,0,0,2.18-20.77c.28-20.49.1-41,.1-61.49Z" transform="translate(-206.67 -186.4)" fill="none"/><path d="M521.83,298.21C497,284.46,470,280.14,442,281.91c-9.32.59-18.61,3.06-27.72,5.39-24.56,6.28-45.34,18.84-61.15,38.85-16,20.27-21.89,43.29-15.35,68.44,6.06,23.29,20.91,40.55,40.86,53.48,23,14.87,48.35,21.39,79.95,21.32,9.39.62,22.58-2.11,35.81-5.64,21.1-5.62,39.58-15.66,54.45-31.55,22.93-24.49,31.19-52.73,18.62-84.95C558.85,325.05,542.4,309.56,521.83,298.21Z" transform="translate(-206.67 -186.4)" fill="none"/><path d="M699.44,581.28c-.39-1-.11-2.3-.11-3.46q0-149.42.07-298.84c0-1.2-.63-2.85-.17-4.05a2,2,0,0,1,.43-.66A2.42,2.42,0,0,1,700,274a3.92,3.92,0,0,1,1.63-.55c-1.07-7.14-1.57-14.41-3.32-21.37A83.38,83.38,0,0,0,673.92,211c-18.49-17.23-41-24.61-66.15-24.6q-153.47,0-306.94.14a126.74,126.74,0,0,0-26.64,3.22,80.28,80.28,0,0,0-40.91,22.77c-18.36,19-26.78,42.09-26.61,68.77.38,63.15.18,126.31.06,189.46A118.67,118.67,0,0,0,210,499.83a84.5,84.5,0,0,0,20,37.44c18.92,20.6,42.68,30,70.65,29.93q133.23-.29,266.45-.06c2.81,0,5.63.08,8.44.12l.9,1c0,.37.06.73.08,1.1q-.32,8.1-.62,16.19c-1.1,7.22-1.54,14.62-3.45,21.61a102.48,102.48,0,0,1-29.5,48.89c-15,14-32.35,23.16-52.63,26.32-9.82,1.53-19.87,1.66-29.66,3.33-17.77,3-32.09,12.25-41.62,27.47-10.21,16.32-12.65,33.8-7.19,52.93,8.12,28.43,33.82,44.64,61,44.33A234.75,234.75,0,0,0,526.65,804a230.71,230.71,0,0,0,59.88-24.08c14.5-8.34,27.48-18.59,40-29.73,27.78-24.81,47.43-55,61-89.4,6.54-16.64,10.29-34,12.58-51.64,1.1-8.53,1.1-17.19,1.6-25.79C700.87,582.66,699.76,582.12,699.44,581.28ZM548.89,432.2c-14.87,15.89-33.35,25.93-54.45,31.55-13.23,3.53-26.42,6.26-35.81,5.64-31.6.07-57-6.45-79.95-21.32-19.95-12.93-34.8-30.19-40.86-53.48-6.54-25.15-.65-48.17,15.35-68.44,15.81-20,36.59-32.57,61.15-38.85,9.11-2.33,18.4-4.8,27.72-5.39,28-1.77,54.91,2.55,79.79,16.3,20.57,11.35,37,26.84,45.68,49C580.08,379.47,571.82,407.71,548.89,432.2Z" transform="translate(-206.67 -186.4)" fill="#67d080"/><path d="M1462.2,419.83a195.92,195.92,0,0,0-2-28.36c-5.54-34.47-24.11-58.7-57.75-69.89-28.59-9.51-57.63-9.77-86.6-1.73-29.63,8.23-49.59,27-59.13,56.35-4.37,13.41-5.53,27.35-5.5,41.42.06,41.66-.11,83.33.12,125a169.31,169.31,0,0,0,2.17,27.84c5.89,34,24.66,57.76,57.89,68.66,29,9.51,58.34,9.47,87.56.93,27.93-8.15,47.28-25.81,57-53.43,4.47-12.67,6.15-25.91,6.26-39.29.18-22.33,0-44.66,0-67h0C1462.29,460.16,1462.5,440,1462.2,419.83Zm-58.7,122a99,99,0,0,1-2.18,20.77c-4.26,18.51-18.08,30.33-37.08,31.58a82.51,82.51,0,0,1-22.8-1.35c-17.45-3.82-28.52-17-31-35.5a111.24,111.24,0,0,1-1.06-14.92c-.08-41.5-.19-83,.09-124.5a93.57,93.57,0,0,1,3-22.65c3.84-14.84,14.11-23.8,28.73-27.66a60.93,60.93,0,0,1,30.67,0c18.93,4.74,30.89,20,31.43,41.79.59,23.65.13,47.32.13,71h.26C1403.6,500.81,1403.78,521.32,1403.5,541.81Z" transform="translate(-206.67 -186.4)" fill="#47585c"/><path d="M2246.54,335c0-10.28-2.89-14.33-12.6-17.79a48.31,48.31,0,0,0-34.2.41c-8.88,3.36-11.57,7.46-11.58,17q0,54.74,0,109.47v5.53H2087V405.64q0-35.25,0-70.48c0-10.21-3-14.49-12.6-17.91a48.23,48.23,0,0,0-36.5,1.26c-6.45,2.8-9.58,7.68-9.57,14.9q.1,145.2,0,290.41c0,6.77,2.92,11.45,8.71,14.51a43.09,43.09,0,0,0,28.57,4.34c17-3.08,21.41-8.36,21.41-25.36V496.08h101.19v6.15c0,40.32.1,80.64-.09,121,0,7.7,3.28,12.68,9.9,15.79a44.13,44.13,0,0,0,35.4,1.51c10.25-3.81,13.17-8.17,13.17-19.1q0-76.49,0-152.95Q2246.54,401.72,2246.54,335Z" transform="translate(-206.67 -186.4)" fill="#47585c"/><path d="M1728.1,334.88c0-9.56-3-14-12-17.36a49.48,49.48,0,0,0-31.88-1.16c-11.47,3.29-14.85,7.88-14.85,19.75q0,102,0,204c0,3.17,0,6.34-.14,9.5-1.23,22.9-13.23,38.82-33.78,43.26a87,87,0,0,1-23.8,1.32c-20.92-1.37-35.3-14.23-39.42-34.78a94.73,94.73,0,0,1-1.73-18.34q-.16-102.73-.07-205.46c0-10.93-2.72-14.81-13.06-18.46a48.37,48.37,0,0,0-30-.85c-12.22,3.49-15.39,7.7-15.39,20.26q0,102.23,0,204.46a178.45,178.45,0,0,0,1.34,23.92c5,36.34,23.8,62.12,59.23,73.79,32.65,10.74,65.59,10.39,98-1.28,27.65-10,45.7-29.55,52.76-58a170.63,170.63,0,0,0,4.48-37.52c.61-31.82.2-63.66.2-95.48Q1728.11,390.62,1728.1,334.88Z" transform="translate(-206.67 -186.4)" fill="#47585c"/><path d="M963.56,469.12c-6.56-4.52-13.26-9-20.41-12.48-18.11-8.74-36.7-16.49-54.71-25.42a88.38,88.38,0,0,1-21.19-14.65c-3.92-3.69-6.81-9.68-7.77-15.07-2.84-16,4.35-28,20.29-34,20-7.6,40.46-7.34,60.65-.54,6.4,2.16,12.38,5.66,18.41,8.82,13.08,6.85,24.24,3.84,31.09-9.16a56.36,56.36,0,0,0,4.67-14.11c1.85-8.37-.6-15.88-7.49-20.86a79.35,79.35,0,0,0-18.7-10.19c-18.79-6.91-38.49-8.95-58.39-9.28-.08-.44-.15-.88-.23-1.32C896,313,882,314.2,868.56,317.64c-36.16,9.25-64,33.48-67.78,72.59-2.55,26.65,2.31,51.15,21.61,71.15,10.17,10.55,22.27,18.49,35.41,24.81,16.93,8.15,34.24,15.55,50.87,24.26,9,4.73,18.13,10.38,25.14,17.61C954,548.84,946.27,580.94,919,590.3c-26,8.94-50.55,5.28-72.4-12.22-5.46-4.37-10.59-9.16-16.12-13.43-7.81-6-17.17-6-24.49-.43-16.17,12.4-18.68,33.38-4.76,48.18a92.7,92.7,0,0,0,22.25,17.42c31.73,17.54,65.9,21.2,101.18,14.87,26.79-4.8,49.16-17.28,64.31-40.72,11.88-18.37,14.87-38.92,14.19-60.27C1002.16,512.38,989.65,487.08,963.56,469.12Z" transform="translate(-206.67 -186.4)" fill="#47585c"/><path d="M1975,530.64c-11.61-3.68-23.29-3.64-34.73.84a15.41,15.41,0,0,0-10.14,12.6c-.93,5.75-1.78,11.51-2.84,17.24-3.46,18.83-14.32,29.89-32.82,32.61a87.49,87.49,0,0,1-18.94.3c-20.34-1.52-34.12-13.48-38.31-33.31a88.14,88.14,0,0,1-1.84-17.82q-.24-62.75,0-125.48a105.41,105.41,0,0,1,1.06-14.42c2.82-20.14,15-33.44,34.9-36.32a92,92,0,0,1,26.76.54c13.91,2.14,23.55,10.65,28.09,24a71.4,71.4,0,0,1,3.28,17.55c.66,8.93,4.86,14.62,13.3,17.28a55.29,55.29,0,0,0,30.55.65c7.68-1.94,12.31-7,13.81-14.79a59.57,59.57,0,0,0,1.13-9.4c.91-32.39-13.13-56.63-41.06-72.36-30.93-17.43-64.18-19.54-98.31-12.26-24.28,5.19-44.22,17.15-57.49,38.81-9.77,15.93-13.56,33.61-13.92,51.95-.47,23.65-.11,47.32-.11,71h-.12c0,20-.23,40,.09,60,.17,10.13.51,20.37,2.17,30.33,5.45,32.78,23.19,56.08,54.78,67.92a124.68,124.68,0,0,0,38.51,7.76c27.32,1.2,53.5-2.88,77.09-17.75,28-17.63,42.77-50,37.55-81.4C1986.13,539.07,1982.66,533.08,1975,530.64Z" transform="translate(-206.67 -186.4)" fill="#46585c"/><path d="M1209.81,592.14H1102V337.7c0-1.67,0-3.33,0-5-.18-7.11-3.68-11.84-10.22-14.54a48.66,48.66,0,0,0-36.53-.64c-9.07,3.33-11.86,7.64-11.86,17.36V622.34c0,10,2.92,14.74,12.26,18.24a38.63,38.63,0,0,0,13.07,2.67c47.5.19,95,.1,142.48.17,6.81,0,11.38-3.06,14.23-9a37.7,37.7,0,0,0,1.34-30.53C1223.37,595,1219.24,592.14,1209.81,592.14Z" transform="translate(-206.67 -186.4)" fill="#47595d"/><path d="M701.63,273.44h0A3.92,3.92,0,0,0,700,274a2.42,2.42,0,0,0-.34.28,2,2,0,0,0-.43.66c-.46,1.2.17,2.85.17,4.05q-.14,149.41-.07,298.84c0,1.16-.28,2.44.11,3.46.32.84,1.43,1.38,2.19,2.05.2-2.3.59-4.6.59-6.9q0-147.78,0-295.56c0-2.48-.38-4.95-.59-7.43Z" transform="translate(-206.67 -186.4)" fill="#5bcd76"/><path d="M701.63,273.44h0A3.92,3.92,0,0,0,700,274,3.92,3.92,0,0,1,701.63,273.44Z" transform="translate(-206.67 -186.4)" fill="#5bcd76"/></svg>